<svg width="690" height="336" viewBox="0 0 690 336" class="keymap" xmlns="http://www.w3.org/2000/svg" xmlns:xlink="http://www.w3.org/1999/xlink">
<defs>/* start glyphs */
<svg id="mdi:arrow-collapse-left">
<svg xmlns="http://www.w3.org/2000/svg" id="mdi-arrow-collapse-left" viewBox="0 0 24 24"><path d="M11.92,19.92L4,12L11.92,4.08L13.33,5.5L7.83,11H22V13H7.83L13.34,18.5L11.92,19.92M4,12V2H2V22H4V12Z" /></svg>
</svg>
<svg id="mdi:arrow-collapse-right">
<svg xmlns="http://www.w3.org/2000/svg" id="mdi-arrow-collapse-right" viewBox="0 0 24 24"><path d="M12.08,4.08L20,12L12.08,19.92L10.67,18.5L16.17,13H2V11H16.17L10.67,5.5L12.08,4.08M20,12V22H22V2H20V12Z" /></svg>
</svg>
<svg id="mdi:arrow-down">
<svg xmlns="http://www.w3.org/2000/svg" id="mdi-arrow-down" viewBox="0 0 24 24"><path d="M11,4H13V16L18.5,10.5L19.92,11.92L12,19.84L4.08,11.92L5.5,10.5L11,16V4Z" /></svg>
</svg>
<svg id="mdi:arrow-left">
<svg xmlns="http://www.w3.org/2000/svg" id="mdi-arrow-left" viewBox="0 0 24 24"><path d="M20,11V13H8L13.5,18.5L12.08,19.92L4.16,12L12.08,4.08L13.5,5.5L8,11H20Z" /></svg>
</svg>
<svg id="mdi:arrow-right">
<svg xmlns="http://www.w3.org/2000/svg" id="mdi-arrow-right" viewBox="0 0 24 24"><path d="M4,11V13H16L10.5,18.5L11.92,19.92L19.84,12L11.92,4.08L10.5,5.5L16,11H4Z" /></svg>
</svg>
<svg id="mdi:arrow-up">
<svg xmlns="http://www.w3.org/2000/svg" id="mdi-arrow-up" viewBox="0 0 24 24"><path d="M13,20H11V8L5.5,13.5L4.08,12.08L12,4.16L19.92,12.08L18.5,13.5L13,8V20Z" /></svg>
</svg>
</defs>/* end glyphs */
<style>/* inherit to force styles through use tags */
svg path {
    fill: inherit;
}

/* font and background color specifications */
svg.keymap {
    font-family: SFMono-Regular,Consolas,Liberation Mono,Menlo,monospace;
    font-size: 14px;
    font-kerning: normal;
    text-rendering: optimizeLegibility;
    fill: #24292e;
}

/* default key styling */
rect.key {
    fill: #f6f8fa;
}

rect.key, rect.combo {
    stroke: #c9cccf;
    stroke-width: 1;
}

/* default key side styling, only used is draw_key_sides is set */
rect.side {
    filter: brightness(90%);
}

/* color accent for combo boxes */
rect.combo, rect.combo-separate {
    fill: #cdf;
}

/* color accent for held keys */
rect.held, rect.combo.held {
    fill: #fdd;
}

/* color accent for ghost (optional) keys */
rect.ghost, rect.combo.ghost {
    stroke-dasharray: 4, 4;
    stroke-width: 2;
}

text {
    text-anchor: middle;
    dominant-baseline: middle;
}

/* styling for layer labels */
text.label {
    font-weight: bold;
    text-anchor: start;
    stroke: white;
    stroke-width: 4;
    paint-order: stroke;
}

/* styling for optional footer */
text.footer {
    text-anchor: end;
    dominant-baseline: auto;
    stroke: white;
    stroke-width: 4;
    paint-order: stroke;
}

/* styling for combo tap, and key non-tap label text */
text.combo, text.hold, text.shifted, text.left, text.right, text.tl, text.tr, text.bl, text.br {
    font-size: 11px;
}

text.hold, text.bl, text.br {
    text-anchor: middle;
    dominant-baseline: auto;
}

text.shifted, text.tl, text.tr {
    text-anchor: middle;
    dominant-baseline: hanging;
}

text.left, text.tl, text.bl {
    text-anchor: start;
}

text.right, text.tr, text.br {
    text-anchor: end;
}

text.layer-activator {
    text-decoration: underline;
}

/* styling for hold/shifted label text in combo box */
text.combo.hold, text.combo.shifted, text.combo.left, text.combo.right {
    font-size: 8px;
}

/* lighter symbol for transparent keys */
text.trans {
    fill: #7b7e81;
}

/* styling for combo dendrons */
path.combo {
    stroke-width: 1;
    stroke: gray;
    fill: none;
}

/* Start Tabler Icons Cleanup */
/* cannot use height/width with glyphs */
.icon-tabler > path {
    fill: inherit;
    stroke: inherit;
    stroke-width: 2;
}
/* hide tabler's default box */
.icon-tabler > path[stroke="none"][fill="none"] {
    visibility: hidden;
}
/* End Tabler Icons Cleanup */

svg.keymap { fill: #d1d6db; }
rect.key { fill: #3f4750; }
rect.key, rect.combo { stroke: #60666c; }
rect.combo, rect.combo-separate { fill: #1f3d7a; }
rect.held, rect.combo.held { fill: #854747; }
text.label, text.footer { stroke: black; }
text.trans { fill: #7e8184; }
path.combo { stroke: #7f7f7f; }

/* Stacked reference: symbols (purple), raise/nav+num (orange), holds (muted) */
text.tr, use.tr { fill: #cba6f7; }
text.br, use.br { fill: #fab387; }
text.bl, use.bl { fill: #fab387; }
text.hold { fill: #a6adc8; font-size: 10px; }
text.tap { fill: #cdd6f4; }
rect.held, rect.comboheld { fill: #89b4fa; }
.layer-Adjust, .layer-Mouse { opacity: 0.95; }


text.tr, use.tr { fill: #cba6f7; }
text.br, use.br { fill: #fab387; }
text.tl, use.tl { fill: #f38ba8; }
text.hold { fill: #a6adc8; }
rect.key { fill: #313244; stroke: #45475a; }
</style>
<g transform="translate(30, 0)" class="layer-Reference">
<text x="0" y="28" class="label" id="Reference">Reference:</text>
<g transform="translate(0, 56)">
<g transform="translate(30, 28)" class="key keypos-0">
<rect rx="6" ry="6" x="-28" y="-26" width="56" height="52" class="key"/>
<text x="0" y="0" class="key tap">Q</text>
<text x="-26" y="-24" class="key tl">Q</text>
<text x="26" y="-24" class="key tr">~</text>
</g>
<g transform="translate(90, 28)" class="key keypos-1">
<rect rx="6" ry="6" x="-28" y="-26" width="56" height="52" class="key"/>
<text x="0" y="0" class="key tap">W</text>
<text x="-26" y="-24" class="key tl">W</text>
<text x="26" y="-24" class="key tr">^</text>
<text x="26" y="24" class="key br">7</text>
</g>
<g transform="translate(150, 28)" class="key keypos-2">
<rect rx="6" ry="6" x="-28" y="-26" width="56" height="52" class="key"/>
<text x="0" y="0" class="key tap">F</text>
<text x="-26" y="-24" class="key tl">F</text>
<text x="26" y="-24" class="key tr">@</text>
<text x="26" y="24" class="key br">8</text>
</g>
<g transform="translate(210, 28)" class="key keypos-3">
<rect rx="6" ry="6" x="-28" y="-26" width="56" height="52" class="key"/>
<text x="0" y="0" class="key tap">P</text>
<text x="-26" y="-24" class="key tl">P</text>
<text x="26" y="-24" class="key tr">$</text>
<text x="26" y="24" class="key br">9</text>
</g>
<g transform="translate(270, 28)" class="key keypos-4">
<rect rx="6" ry="6" x="-28" y="-26" width="56" height="52" class="key"/>
<text x="0" y="0" class="key tap">G</text>
<text x="-26" y="-24" class="key tl">G</text>
<text x="26" y="-24" class="key tr">%</text>
</g>
<g transform="translate(360, 28)" class="key keypos-5">
<rect rx="6" ry="6" x="-28" y="-26" width="56" height="52" class="key"/>
<text x="0" y="0" class="key tap">J</text>
<text x="-26" y="-24" class="key tl">1</text>
<text x="26" y="-24" class="key tr">&amp;</text>
<use href="#mdi:arrow-collapse-left" xlink:href="#mdi:arrow-collapse-left" x="16" y="14" height="10" width="10.0" class="key br glyph mdi:arrow-collapse-left"/>
</g>
<g transform="translate(420, 28)" class="key keypos-6">
<rect rx="6" ry="6" x="-28" y="-26" width="56" height="52" class="key"/>
<text x="0" y="0" class="key tap">L</text>
<text x="-26" y="-24" class="key tl">2</text>
<text x="26" y="-24" class="key tr">/</text>
<text x="26" y="24" class="key br">WordL</text>
</g>
<g transform="translate(480, 28)" class="key keypos-7">
<rect rx="6" ry="6" x="-28" y="-26" width="56" height="52" class="key"/>
<text x="0" y="0" class="key tap">U</text>
<text x="-26" y="-24" class="key tl">3</text>
<text x="26" y="-24" class="key tr">\</text>
<use href="#mdi:arrow-up" xlink:href="#mdi:arrow-up" x="16" y="14" height="10" width="10.0" class="key br glyph mdi:arrow-up"/>
</g>
<g transform="translate(540, 28)" class="key keypos-8">
<rect rx="6" ry="6" x="-28" y="-26" width="56" height="52" class="key"/>
<text x="0" y="0" class="key tap">Y</text>
<text x="-26" y="-24" class="key tl">4</text>
<text x="26" y="-24" class="key tr">|</text>
<text x="26" y="24" class="key br">WordR</text>
</g>
<g transform="translate(600, 28)" class="key keypos-9">
<rect rx="6" ry="6" x="-28" y="-26" width="56" height="52" class="key"/>
<text x="0" y="0" class="key tap">*</text>
<text x="-26" y="-24" class="key tl">5</text>
<text x="26" y="-24" class="key tr">`</text>
<use href="#mdi:arrow-collapse-right" xlink:href="#mdi:arrow-collapse-right" x="16" y="14" height="10" width="10.0" class="key br glyph mdi:arrow-collapse-right"/>
</g>
<g transform="translate(30, 84)" class="key keypos-10">
<rect rx="6" ry="6" x="-28" y="-26" width="56" height="52" class="key"/>
<text x="0" y="0" class="key tap">A</text>
<text x="0" y="24" class="key hold">Hyper</text>
<text x="-26" y="-24" class="key tl">A</text>
<text x="26" y="-24" class="key tr">Uml</text>
</g>
<g transform="translate(90, 84)" class="key keypos-11">
<rect rx="6" ry="6" x="-28" y="-26" width="56" height="52" class="key"/>
<text x="0" y="0" class="key tap">R</text>
<text x="0" y="24" class="key hold">Shift</text>
<text x="-26" y="-24" class="key tl">R</text>
<text x="26" y="-24" class="key tr">&lt;</text>
<text x="26" y="24" class="key br">4</text>
</g>
<g transform="translate(150, 84)" class="key keypos-12">
<rect rx="6" ry="6" x="-28" y="-26" width="56" height="52" class="key"/>
<text x="0" y="0" class="key tap">S</text>
<text x="0" y="24" class="key hold">Alt</text>
<text x="-26" y="-24" class="key tl">S</text>
<text x="26" y="-24" class="key tr">[</text>
<text x="26" y="24" class="key br">5</text>
</g>
<g transform="translate(210, 84)" class="key keypos-13">
<rect rx="6" ry="6" x="-28" y="-26" width="56" height="52" class="key"/>
<text x="0" y="0" class="key tap">T</text>
<text x="0" y="24" class="key hold">Cmd</text>
<text x="-26" y="-24" class="key tl">T</text>
<text x="26" y="-24" class="key tr">(</text>
<text x="26" y="24" class="key br">6</text>
</g>
<g transform="translate(270, 84)" class="key keypos-14">
<rect rx="6" ry="6" x="-28" y="-26" width="56" height="52" class="key"/>
<text x="0" y="0" class="key tap">D</text>
<text x="0" y="24" class="key hold">Ctrl</text>
<text x="-26" y="-24" class="key tl">D</text>
<text x="26" y="-24" class="key tr">{</text>
</g>
<g transform="translate(360, 84)" class="key keypos-15">
<rect rx="6" ry="6" x="-28" y="-26" width="56" height="52" class="key"/>
<text x="0" y="0" class="key tap">H</text>
<text x="0" y="24" class="key hold">Ctrl</text>
<text x="26" y="-24" class="key tr">-</text>
<text x="26" y="24" class="key br">Fwd</text>
</g>
<g transform="translate(420, 84)" class="key keypos-16">
<rect rx="6" ry="6" x="-28" y="-26" width="56" height="52" class="key"/>
<text x="0" y="0" class="key tap">N</text>
<text x="0" y="24" class="key hold">Cmd</text>
<text x="-26" y="-24" class="key tl">Left</text>
<text x="26" y="-24" class="key tr">_</text>
<use href="#mdi:arrow-left" xlink:href="#mdi:arrow-left" x="16" y="14" height="10" width="10.0" class="key br glyph mdi:arrow-left"/>
</g>
<g transform="translate(480, 84)" class="key keypos-17">
<rect rx="6" ry="6" x="-28" y="-26" width="56" height="52" class="key"/>
<text x="0" y="0" class="key tap">E</text>
<text x="0" y="24" class="key hold">Alt</text>
<text x="-26" y="-24" class="key tl">Up</text>
<text x="26" y="-24" class="key tr">:</text>
<use href="#mdi:arrow-down" xlink:href="#mdi:arrow-down" x="16" y="14" height="10" width="10.0" class="key br glyph mdi:arrow-down"/>
</g>
<g transform="translate(540, 84)" class="key keypos-18">
<rect rx="6" ry="6" x="-28" y="-26" width="56" height="52" class="key"/>
<text x="0" y="0" class="key tap">I</text>
<text x="0" y="24" class="key hold">Shift</text>
<text x="-26" y="-24" class="key tl">Right</text>
<text x="26" y="-24" class="key tr">;</text>
<use href="#mdi:arrow-right" xlink:href="#mdi:arrow-right" x="16" y="14" height="10" width="10.0" class="key br glyph mdi:arrow-right"/>
</g>
<g transform="translate(600, 84)" class="key keypos-19">
<rect rx="6" ry="6" x="-28" y="-26" width="56" height="52" class="key"/>
<text x="0" y="0" class="key tap">O</text>
<text x="0" y="24" class="key hold">Hyper</text>
<text x="26" y="-24" class="key tr">#</text>
<text x="26" y="24" class="key br">Bck</text>
</g>
<g transform="translate(30, 140)" class="key keypos-20">
<rect rx="6" ry="6" x="-28" y="-26" width="56" height="52" class="key"/>
<text x="0" y="0" class="key tap">Z</text>
<text x="0" y="24" class="key hold">Adjust</text>
<text x="-26" y="-24" class="key tl">Z</text>
<text x="26" y="24" class="key br">0</text>
</g>
<g transform="translate(90, 140)" class="key keypos-21">
<rect rx="6" ry="6" x="-28" y="-26" width="56" height="52" class="key"/>
<text x="0" y="0" class="key tap">X</text>
<text x="-26" y="-24" class="key tl">X</text>
<text x="26" y="-24" class="key tr">&gt;</text>
<text x="26" y="24" class="key br">1</text>
</g>
<g transform="translate(150, 140)" class="key keypos-22">
<rect rx="6" ry="6" x="-28" y="-26" width="56" height="52" class="key"/>
<text x="0" y="0" class="key tap">C</text>
<text x="-26" y="-24" class="key tl">C</text>
<text x="26" y="-24" class="key tr">]</text>
<text x="26" y="24" class="key br">2</text>
</g>
<g transform="translate(210, 140)" class="key keypos-23">
<rect rx="6" ry="6" x="-28" y="-26" width="56" height="52" class="key"/>
<text x="0" y="0" class="key tap">V</text>
<text x="-26" y="-24" class="key tl">V</text>
<text x="26" y="-24" class="key tr">)</text>
<text x="26" y="24" class="key br">3</text>
</g>
<g transform="translate(270, 140)" class="key keypos-24">
<rect rx="6" ry="6" x="-28" y="-26" width="56" height="52" class="key"/>
<text x="0" y="0" class="key tap">B</text>
<text x="-26" y="-24" class="key tl">B</text>
<text x="26" y="-24" class="key tr">}</text>
</g>
<g transform="translate(360, 140)" class="key keypos-25">
<rect rx="6" ry="6" x="-28" y="-26" width="56" height="52" class="key"/>
<text x="0" y="0" class="key tap">K</text>
<text x="26" y="-24" class="key tr">+</text>
<text x="26" y="24" class="key br">TabL</text>
</g>
<g transform="translate(420, 140)" class="key keypos-26">
<rect rx="6" ry="6" x="-28" y="-26" width="56" height="52" class="key"/>
<text x="0" y="0" class="key tap">M</text>
<text x="-26" y="-24" class="key tl">;</text>
<text x="26" y="-24" class="key tr">=</text>
<text x="26" y="24" class="key br">Hyp_[</text>
</g>
<g transform="translate(480, 140)" class="key keypos-27">
<rect rx="6" ry="6" x="-28" y="-26" width="56" height="52" class="key"/>
<text x="0" y="0" class="key tap">,</text>
<text x="-26" y="-24" class="key tl">Down</text>
<text x="26" y="-24" class="key tr">?</text>
<text x="26" y="24" class="key br">Hyp_\</text>
</g>
<g transform="translate(540, 140)" class="key keypos-28">
<rect rx="6" ry="6" x="-28" y="-26" width="56" height="52" class="key"/>
<text x="0" y="0" class="key tap">.</text>
<text x="-26" y="-24" class="key tl">&#x27;</text>
<text x="26" y="-24" class="key tr">!</text>
<text x="26" y="24" class="key br">Hyp_]</text>
</g>
<g transform="translate(600, 140)" class="key keypos-29">
<rect rx="6" ry="6" x="-28" y="-26" width="56" height="52" class="key"/>
<text x="0" y="0" class="key tap">&#x27;</text>
<text x="0" y="24" class="key hold">Adjust</text>
<text x="26" y="-24" class="key tr">&quot;</text>
<text x="26" y="24" class="key br">TabR</text>
</g>
<g transform="translate(150, 196)" class="key keypos-30">
<rect rx="6" ry="6" x="-28" y="-26" width="56" height="52" class="key"/>
<text x="0" y="0" class="key tap">Esc</text>
<text x="0" y="24" class="key hold">Mouse</text>
<text x="-26" y="-24" class="key tl">Esc</text>
</g>
<g transform="translate(210, 196)" class="key keypos-31">
<rect rx="6" ry="6" x="-28" y="-26" width="56" height="52" class="key"/>
<text x="0" y="24" class="key hold">Shift</text>
</g>
<g transform="translate(270, 196)" class="key keypos-32">
<rect rx="6" ry="6" x="-28" y="-26" width="56" height="52" class="key"/>
<text x="0" y="0" class="key tap">Tab</text>
<text x="0" y="24" class="key hold">Lower</text>
<text x="-26" y="-24" class="key tl">Tab</text>
</g>
<g transform="translate(360, 196)" class="key keypos-33">
<rect rx="6" ry="6" x="-28" y="-26" width="56" height="52" class="key"/>
<text x="0" y="0" class="key tap">Ret</text>
<text x="-26" y="-24" class="key tl">Ret</text>
</g>
<g transform="translate(420, 196)" class="key keypos-34">
<rect rx="6" ry="6" x="-28" y="-26" width="56" height="52" class="key"/>
<text x="0" y="0" class="key tap">Spc</text>
<text x="0" y="24" class="key hold">Raise</text>
<text x="-26" y="-24" class="key tl">Spc</text>
</g>
<g transform="translate(480, 196)" class="key keypos-35">
<rect rx="6" ry="6" x="-28" y="-26" width="56" height="52" class="key"/>
<text x="0" y="0" class="key tap">Bksp</text>
<text x="0" y="24" class="key hold">Hyper</text>
<text x="-26" y="-24" class="key tl">Bksp</text>
<text x="26" y="-24" class="key tr">AltBksp</text>
</g>
</g>
</g>
<text x="660.0" y="308.0" class="footer">Dubu36 reference</text></svg>
